Coordinates
version=1
nRows=40
nColumns=38
inDegrees=no

Units are S.I. units (second, meters, Newtons, ...)
If the header above contains a line with 'inDegrees', this indicates whether rotational values are in degrees (yes) or radians (no).

endheader
time	pelvis_tilt	pelvis_list	pelvis_rotation	pelvis_tx	pelvis_ty	pelvis_tz	hip_flexion_r	hip_adduction_r	hip_rotation_r	knee_angle_r	ankle_angle_r	subtalar_angle_r	mtp_angle_r	hip_flexion_l	hip_adduction_l	hip_rotation_l	knee_angle_l	ankle_angle_l	subtalar_angle_l	mtp_angle_l	lumbar_extension	lumbar_bending	lumbar_rotation	arm_flex_r	arm_add_r	arm_rot_r	elbow_flex_r	pro_sup_r	wrist_flex_r	wrist_dev_r	arm_flex_l	arm_add_l	arm_rot_l	elbow_flex_l	pro_sup_l	wrist_flex_l	wrist_dev_l
0	-0.3013	1.35187	-1.15035	0.554806	2.12712	0.950026	0.0307234	0.0796859	-0.167218	0.495597	-0.221588	0	0	0.0457203	-0.264779	-0.082407	1.35694	-0.497813	0	0	-0.446306	0.156379	-0.0559512	-0.048183	-0.593087	0.835976	0.901982	0.590618	0	0	-0.174168	-0.225518	-0.104823	0.653725	1.52703	0	0
0.01	-0.249541	1.34004	-1.19822	0.553655	2.12167	0.955798	-0.0877578	0.10862	-0.00395405	0.241356	-0.312518	0	0	0.0537311	-0.179428	0.0474385	1.37519	-0.419258	0	0	-0.468737	0.148387	-0.0426447	-0.0581932	-0.571685	0.791543	0.879448	0.62004	0	0	-0.140324	-0.234804	-0.0639988	0.626295	1.50846	0	0
0.02	-0.237962	1.34671	-1.2164	0.552584	2.11268	0.954055	-0.00889614	0.0717054	-0.167966	0.476471	-0.217068	0	0	0.102298	-0.246513	-0.0645074	1.43395	-0.454031	0	0	-0.457321	0.14056	-0.0324212	-0.0793937	-0.57304	0.762726	0.891685	0.635759	0	0	-0.145012	-0.243232	-0.0353712	0.635806	1.48138	0	0
0.03	-0.27746	1.35749	-1.1739	0.552473	2.10604	0.952937	-0.00401318	0.076654	-0.171428	0.476215	-0.210794	0	0	0.159107	-0.205474	0.0140846	1.48914	-0.403981	0	0	-0.443138	0.146312	-0.0284998	-0.0866748	-0.572727	0.746988	0.893248	0.644729	0	0	-0.138016	-0.244612	-0.0181342	0.63141	1.46906	0	0
0.04	-0.290698	1.35149	-1.15092	0.552384	2.09963	0.956059	-0.121727	0.119997	-0.00427731	0.191516	-0.317086	0	0	0.182565	-0.158067	0.0985168	1.51643	-0.337324	0	0	-0.448798	0.1533	-0.0186883	-0.0996287	-0.557871	0.707678	0.877804	0.667699	0	0	-0.108909	-0.25216	0.0338114	0.605513	1.43806	0	0
0.05	-0.249085	1.36788	-1.19459	0.551831	2.09149	0.954302	-0.0175208	0.065807	-0.209986	0.475311	-0.200811	0	0	0.232002	-0.158072	0.0698027	1.55418	-0.317345	0	0	-0.430349	0.136101	-0.0114046	-0.120928	-0.548739	0.671973	0.877573	0.686629	0	0	-0.10335	-0.265781	0.0828019	0.605096	1.40125	0	0
0.06	-0.215863	1.37139	-1.22877	0.551135	2.08478	0.955225	-0.0260645	0.0585247	-0.216142	0.474599	-0.196054	0	0	0.260059	-0.120836	0.0986875	1.58139	-0.272544	0	0	-0.429356	0.12587	-0.00648347	-0.122174	-0.540079	0.659752	0.868464	0.698634	0	0	-0.0921348	-0.27125	0.107303	0.597727	1.38454	0	0
0.07	-0.19571	1.37289	-1.25725	0.549991	2.07818	0.955922	-0.0348104	0.0552826	-0.209741	0.473232	-0.193105	0	0	0.284565	-0.112068	0.107538	1.60929	-0.253464	0	0	-0.435052	0.118592	-0.00576057	-0.114442	-0.537363	0.654745	0.867759	0.708595	0	0	-0.0867228	-0.275767	0.123807	0.593107	1.37095	0	0
0.08	-0.168969	1.36756	-1.29411	0.54835	2.07185	0.957391	-0.0605084	0.0587794	-0.178528	0.443831	-0.194974	0	0	0.311334	-0.112657	0.0715367	1.62354	-0.256305	0	0	-0.440926	0.108092	0.0217665	-0.128842	-0.53111	0.627229	0.865532	0.720412	0	0	-0.0685233	-0.275859	0.141516	0.586841	1.36783	0	0
0.09	-0.144336	1.371	-1.31763	0.547596	2.06439	0.957651	-0.0624803	0.0503055	-0.201265	0.461549	-0.184073	0	0	0.342642	-0.104812	0.0675449	1.6361	-0.241823	0	0	-0.435105	0.0984612	0.0588917	-0.195909	-0.485276	0.468369	0.859786	0.859566	0	0	-0.0218004	-0.309977	0.317855	0.569073	1.2469	0	0
0.1	-0.263417	1.36287	-1.20966	0.547931	2.05404	0.953982	-0.0789183	0.0779551	-0.202208	0.456203	-0.17244	0	0	0.371169	-0.19591	-0.0205876	1.66698	-0.246361	0	0	-0.429706	0.126507	0.0329113	-0.143081	-0.551514	0.62691	0.895205	0.714461	0	0	-0.0902668	-0.279084	0.147328	0.614104	1.35161	0	0
0.11	-0.106986	1.36082	-1.36426	0.546045	2.04944	0.959261	-0.102201	0.0494764	-0.195817	0.44154	-0.17912	0	0	0.386875	-0.182515	-0.0600493	1.6435	-0.274756	0	0	-0.449005	0.0877645	0.0327059	-0.125055	-0.520909	0.619575	0.854876	0.727305	0	0	-0.0588697	-0.287236	0.169736	0.589365	1.34369	0	0
0.12	-0.0446882	1.37761	-1.4146	0.547134	2.04413	0.959238	-0.0923197	0.0330427	-0.208191	0.44635	-0.173037	0	0	0.411567	-0.0444418	0.103698	1.62691	-0.182002	0	0	-0.437655	0.0748917	0.0150891	-0.105937	-0.513274	0.639051	0.835352	0.7189	0	0	-0.0508675	-0.283125	0.151795	0.577867	1.36319	0	0
0.13	-0.0157116	1.3773	-1.44641	0.546764	2.03742	0.959602	-0.10316	0.0293836	-0.203641	0.44162	-0.16958	0	0	0.432882	-0.0384009	0.0912855	1.61284	-0.174459	0	0	-0.441117	0.0671234	0.0140667	-0.0965967	-0.513828	0.649972	0.833351	0.713676	0	0	-0.0505345	-0.281838	0.138732	0.580046	1.37372	0	0
0.14	0.00486906	1.37359	-1.47608	0.546081	2.03063	0.959883	-0.116176	0.027425	-0.190102	0.437906	-0.16526	0	0	0.441946	-0.0397532	0.054642	1.61215	-0.138323	0	0	-0.448693	0.0601112	0.0159153	-0.0859758	-0.518531	0.662809	0.837057	0.705758	0	0	-0.0540083	-0.279456	0.120983	0.587354	1.38138	0	0
0.15	0.0294831	1.37235	-1.50165	0.545634	2.0233	0.960066	-0.128554	0.0255891	-0.188747	0.431729	-0.162731	0	0	0.463041	-0.0444254	0.016103	1.59018	-0.140157	0	0	-0.451712	0.0534135	0.0126874	-0.0773656	-0.517403	0.673759	0.834156	0.699717	0	0	-0.0557252	-0.279455	0.108892	0.59137	1.38667	0	0
0.16	0.0666177	1.37236	-1.54006	0.54529	2.01664	0.960251	-0.136798	0.0203218	-0.183055	0.430026	-0.158923	0	0	0.479382	-0.0274631	0.0108862	1.557	-0.142939	0	0	-0.454981	0.043824	0.00921081	-0.0668545	-0.515026	0.684396	0.829111	0.692888	0	0	-0.0548602	-0.280281	0.0996743	0.59371	1.3927	0	0
0.17	0.0909853	1.37242	-1.56113	0.54526	2.009	0.960161	-0.148552	0.0191705	-0.184161	0.422617	-0.155517	0	0	0.495601	-0.0246198	-0.00345418	1.52327	-0.150822	0	0	-0.455207	0.038178	0.00304549	-0.059458	-0.511208	0.694244	0.822306	0.687019	0	0	-0.0557189	-0.28148	0.0915974	0.594868	1.39869	0	0
0.18	0.111515	1.37132	-1.57982	0.54537	2.00152	0.960082	-0.16034	0.0178329	-0.182542	0.41742	-0.152732	0	0	0.507863	-0.021933	-0.0168086	1.48494	-0.15998	0	0	-0.457093	0.0334348	-0.00182202	-0.0518742	-0.509455	0.705052	0.81787	0.683538	0	0	-0.0559713	-0.281931	0.08435	0.595637	1.40365	0	0
0.19	0.12974	1.3683	-1.60035	0.545034	1.99432	0.959992	-0.172335	0.0161779	-0.174545	0.414993	-0.148241	0	0	0.515354	-0.0225604	-0.0338622	1.44246	-0.173836	0	0	-0.458905	0.0249619	0.0490044	-0.139231	-0.465129	0.49888	0.823089	0.856606	0	0	0.00378794	-0.327999	0.320471	0.577627	1.23218	0	0
0.2	0.137598	1.36388	-1.61154	0.544988	1.98735	0.959799	-0.184671	0.0156375	-0.166255	0.414439	-0.143475	0	0	0.519515	-0.0248038	-0.0502585	1.39725	-0.190268	0	0	-0.464259	0.0232593	0.0135646	-0.0526993	-0.512818	0.709078	0.821322	0.667597	0	0	-0.035538	-0.313241	0.202489	0.597132	1.29841	0	0
0.21	0.139496	1.35955	-1.61921	0.544778	1.98026	0.959455	-0.196405	0.0159571	-0.156694	0.414486	-0.138842	0	0	0.523244	-0.0340311	-0.0693702	1.34346	-0.214512	0	0	-0.470354	0.0201854	0.0216563	-0.0553231	-0.515315	0.701479	0.827754	0.669288	0	0	-0.030517	-0.315831	0.214286	0.599223	1.28984	0	0
0.22	0.144402	1.35656	-1.6313	0.544529	1.97314	0.959	-0.205592	0.0149415	-0.147746	0.416713	-0.13466	0	0	0.52282	-0.0373696	-0.0893999	1.29274	-0.221524	0	0	-0.475329	0.0159938	0.0292418	-0.0564663	-0.516599	0.694277	0.83207	0.670798	0	0	-0.0265796	-0.317598	0.222509	0.600924	1.28335	0	0
0.23	0.152553	1.35607	-1.63945	0.544787	1.96542	0.958304	-0.2153	0.0149506	-0.147905	0.414406	-0.130726	0	0	0.522904	-0.036265	-0.102514	1.23834	-0.227127	0	0	-0.476273	0.0133787	0.031288	-0.0591777	-0.514602	0.686745	0.832594	0.673736	0	0	-0.0237178	-0.32018	0.230499	0.601708	1.277	0	0
0.24	0.155496	1.35273	-1.64812	0.54473	1.95825	0.957641	-0.226389	0.014743	-0.137511	0.41416	-0.1243	0	0	0.51657	-0.0387255	-0.119919	1.17939	-0.230943	0	0	-0.481662	0.0100925	0.0382731	-0.061969	-0.516124	0.677908	0.838721	0.67885	0	0	-0.0201874	-0.322563	0.239426	0.604951	1.26879	0	0
0.25	0.157694	1.35119	-1.65264	0.544993	1.95088	0.956717	-0.23685	0.0152504	-0.131587	0.412811	-0.118312	0	0	0.510042	-0.0384752	-0.132007	1.11642	-0.231574	0	0	-0.484624	0.00846887	0.0419569	-0.0646047	-0.516795	0.670359	0.84349	0.684693	0	0	-0.016857	-0.324305	0.246394	0.606353	1.26306	0	0
0.26	0.164246	1.35313	-1.65996	0.545307	1.94281	0.955502	-0.245276	0.0153358	-0.128608	0.410193	-0.112636	0	0	0.504127	-0.036302	-0.141698	1.04974	-0.230039	0	0	-0.482683	0.00603507	0.0444916	-0.0684213	-0.513843	0.661511	0.843233	0.690458	0	0	-0.014111	-0.325797	0.252292	0.605106	1.25801	0	0
0.27	0.163867	1.35748	-1.65439	0.546261	1.93438	0.953921	-0.253261	0.0182827	-0.133651	0.40511	-0.10784	0	0	0.499479	-0.0315679	-0.14139	0.981116	-0.227353	0	0	-0.477234	0.00770889	0.0436129	-0.0746206	-0.509939	0.650306	0.841922	0.695213	0	0	-0.0116188	-0.326609	0.25809	0.602377	1.25432	0	0
0.28	0.162755	1.36374	-1.6474	0.54733	1.92556	0.952143	-0.259965	0.0216528	-0.140036	0.39925	-0.103493	0	0	0.494553	-0.027042	-0.139387	0.910454	-0.225778	0	0	-0.469348	0.00950148	0.0425677	-0.0815827	-0.504695	0.638651	0.838443	0.70067	0	0	-0.00972967	-0.327264	0.263926	0.598649	1.2507	0	0
0.29	0.150023	1.36678	-1.63479	0.548147	1.91751	0.950374	-0.267124	0.0254808	-0.136186	0.397967	-0.0989286	0	0	0.48498	-0.0270547	-0.139828	0.839571	-0.225756	0	0	-0.467966	0.0125346	0.0391458	-0.0777648	-0.50723	0.645534	0.840948	0.702493	0	0	-0.0164351	-0.321633	0.235915	0.600985	1.2734	0	0
0.3	0.131869	1.37029	-1.61034	0.549537	1.90924	0.948349	-0.275469	0.031834	-0.142004	0.394637	-0.0935445	0	0	0.476429	-0.0245172	-0.130952	0.771084	-0.229824	0	0	-0.464091	0.0173178	0.0660361	-0.141321	-0.476534	0.501337	0.848962	0.824979	0	0	0.0168426	-0.337217	0.343172	0.588685	1.21569	0	0
0.31	0.110369	1.37371	-1.5901	0.550546	1.90071	0.946263	-0.282589	0.0366272	-0.138394	0.394227	-0.0861531	0	0	0.469239	-0.0296235	-0.142949	0.717534	-0.232429	0	0	-0.462732	0.0243423	0.0106268	-0.0341071	-0.528539	0.743488	0.844861	0.625707	0	0	-0.0524565	-0.302191	0.126538	0.61754	1.35843	0	0
0.32	0.0974203	1.38254	-1.57291	0.551774	1.89113	0.943889	-0.286815	0.0414438	-0.143574	0.390097	-0.0812913	0	0	0.465919	-0.029948	-0.143346	0.66113	-0.236243	0	0	-0.45113	0.0277152	0.00946887	-0.0420073	-0.524745	0.73501	0.841512	0.630586	0	0	-0.05474	-0.303421	0.131917	0.615132	1.35651	0	0
0.33	0.0746758	1.38846	-1.54887	0.552871	1.88198	0.941632	-0.292674	0.0472318	-0.143076	0.387882	-0.0765271	0	0	0.460408	-0.0336435	-0.146438	0.61144	-0.236995	0	0	-0.443403	0.0320216	0.0116949	-0.0500362	-0.524206	0.725899	0.843254	0.633718	0	0	-0.0568267	-0.304311	0.13688	0.615544	1.35269	0	0
0.34	0.0476919	1.39028	-1.52407	0.553976	1.87349	0.939578	-0.300678	0.0523445	-0.135844	0.388768	-0.0705612	0	0	0.451293	-0.0388536	-0.151302	0.567601	-0.233341	0	0	-0.441696	0.0367372	0.0166163	-0.0577318	-0.527715	0.715726	0.851519	0.640066	0	0	-0.0589219	-0.305406	0.143071	0.619968	1.34597	0	0
0.35	0.0237491	1.39061	-1.50934	0.554725	1.86499	0.937766	-0.308346	0.0544635	-0.120197	0.393164	-0.064398	0	0	0.439637	-0.0466467	-0.164595	0.529537	-0.224021	0	0	-0.442975	0.0387309	0.0248613	-0.0634009	-0.531801	0.705659	0.859994	0.648639	0	0	-0.0627409	-0.306269	0.148187	0.625859	1.33761	0	0
0.36	-0.00362399	1.39237	-1.4861	0.555817	1.8559	0.935857	-0.315639	0.0582029	-0.113419	0.396041	-0.062024	0	0	0.431176	-0.0530151	-0.172862	0.49955	-0.217893	0	0	-0.438176	0.0423192	0.0418911	-0.0867849	-0.530981	0.671297	0.866857	0.6627	0	0	-0.0515224	-0.318229	0.210695	0.621508	1.29108	0	0
0.37	-0.0278679	1.39732	-1.46582	0.556877	1.84602	0.933989	-0.320849	0.0607962	-0.107658	0.396945	-0.0594519	0	0	0.423311	-0.0578277	-0.179129	0.469647	-0.205738	0	0	-0.43633	0.0454297	0.0290105	-0.0731662	-0.533438	0.692259	0.866576	0.658204	0	0	-0.0676994	-0.321664	0.203451	0.628323	1.28719	0	0
0.38	-0.0385396	1.39856	-1.4541	0.558452	1.83619	0.932602	-0.330506	0.0619936	-0.110773	0.397161	-0.0599367	0	0	0.409085	-0.0565965	-0.175653	0.43747	-0.195992	0	0	-0.429179	0.0462805	0.0341598	-0.0780317	-0.534538	0.701045	0.862521	0.65022	0	0	-0.0723396	-0.315768	0.186717	0.629527	1.29885	0	0
0.39	-0.0524205	1.40072	-1.43683	0.56035	1.82591	0.931234	-0.339915	0.0639084	-0.117238	0.396065	-0.0628111	0	0	0.399647	-0.0577991	-0.177697	0.419914	-0.187101	0	0	-0.423321	0.0495013	0.0312483	-0.0810836	-0.534316	0.706045	0.859409	0.645539	0	0	-0.0779155	-0.311611	0.174726	0.627111	1.31158	0	0
